<svg width="50" height="38" viewBox="0 0 50 38" fill="none" xmlns="http://www.w3.org/2000/svg">
<path fill-rule="evenodd" clip-rule="evenodd" d="M49.501 29.3305C49.501 29.3305 48.3777 33.2624 46.8776 34.8333C44.9769 36.896 42.6991 37.3336 41.7209 37.4541C41.4004 37.4789 41.0692 37.4998 40.7381 37.5206L40.7365 37.5067C40.3 37.5422 39.8515 37.4093 39.5187 37.0707C38.912 36.4583 38.912 35.4618 39.5187 34.8496C39.7934 34.5705 40.1497 34.4375 40.5084 34.4112L40.5068 34.3934C40.5595 34.3895 40.6151 34.3864 40.6663 34.3826C41.4759 34.2828 43.24 34.2743 44.8158 32.5698C46.0581 31.2725 46.4609 28.3253 46.4609 28.3253C46.4609 28.3253 46.8745 24.8657 46.8745 21.4061V16.5768C46.8745 13.1172 46.4609 9.65527 46.4609 9.65527C46.4609 9.65527 46.0581 6.70858 44.8158 5.41094C43.24 3.70817 41.4759 3.69926 40.6663 3.59991C34.8717 3.16696 24.9985 3.16855 24.9985 3.16855C24.9985 3.16855 15.1269 3.16696 9.33223 3.59991C8.52256 3.69926 6.7585 3.70817 5.1835 5.41094C3.94277 6.70858 3.53828 9.65527 3.53828 9.65527C3.5375 9.65527 3.12471 13.1172 3.12471 16.5768V21.4061C3.12471 24.8657 3.53828 28.3253 3.53828 28.3253C3.5375 28.3253 3.94277 31.2724 5.1835 32.5698C6.7584 34.2744 8.82783 34.2211 9.74961 34.3988C13.0628 34.7267 24.9984 34.8333 24.9984 34.8333C25.8622 34.8333 26.5611 35.5431 26.5611 36.4167C26.5611 37.2919 25.8622 38 24.9984 38C24.9725 38 24.9474 37.9953 24.9214 37.9939C23.9348 37.9831 12.6057 37.8547 8.78047 37.4735C7.66797 37.2563 5.02393 36.896 3.1209 34.8333C1.6207 33.2624 0.499805 29.3305 0.499805 29.3305C0.499805 29.3305 0 25.9341 0 21.7447V16.2344C0 12.0449 0.499805 8.64718 0.499805 8.64718C0.499805 8.64718 1.6207 4.73803 3.1209 3.16855C5.02393 1.10596 7.3001 0.644417 8.27764 0.523786C15.2756 -9.4374e-08 24.9894 0 24.9894 0H25.0107C25.0107 0 34.7245 -9.4374e-08 41.7209 0.523786C42.6991 0.644417 44.9769 1.10596 46.8776 3.16855C48.3777 4.73793 49.501 8.64718 49.501 8.64718C49.501 8.64718 50 12.0449 50 16.2344V21.7447C50 25.9341 49.501 29.3305 49.501 29.3305ZM31.2502 34.8333C32.114 34.8333 32.8129 35.5431 32.8129 36.4167C32.8129 37.2919 32.114 38 31.2502 38C30.3864 38 29.6875 37.2919 29.6875 36.4167C29.6875 35.5431 30.3864 34.8333 31.2502 34.8333ZM24.2645 26.7328L24.25 26.7405C24.0188 26.8828 23.751 26.9678 23.4617 26.9678C22.6124 26.9678 21.9234 26.2697 21.9234 25.4092C21.9234 24.8093 22.2614 24.2944 22.7521 24.0332L22.7506 24.0316L30.7207 19.7247C30.7161 19.7208 30.7031 19.7177 30.7107 19.7139C30.9718 19.5863 31.1519 19.3146 31.1519 19.0003C31.1519 18.7127 30.9947 18.4607 30.768 18.3238L21.4381 13.2716C21.3297 13.2167 21.2176 13.1881 21.0932 13.1881C20.6758 13.1881 20.3431 13.5201 20.3201 13.9337L20.3217 23.7348H20.3095C20.3095 23.7402 20.3117 23.7455 20.3117 23.751C20.3117 24.6261 19.6104 25.3342 18.7482 25.3342C17.8845 25.3342 17.1855 24.6261 17.1855 23.751C17.1855 23.7487 17.1855 23.7487 17.1855 23.7471V12.723C17.1855 10.9441 18.6102 9.50109 20.3659 9.50109C20.9664 9.50109 21.5273 9.66962 22.0058 9.96263C22.0248 9.97302 22.0317 9.96956 22.0478 9.97658L32.8267 16.27C33.0548 16.4049 33.2653 16.5645 33.46 16.7617C34.6809 17.999 34.6809 20.0037 33.46 21.2407C33.2806 21.4216 33.083 21.5731 32.8762 21.7023L24.3276 26.6941C24.3063 26.7081 24.2851 26.7188 24.2645 26.7328Z" fill="#E62D27"/>
</svg>
