<svg width="43" height="43" viewBox="0 0 43 43" fill="none" xmlns="http://www.w3.org/2000/svg">
<path d="M36.1003 37.3253H6.89841C5.15078 37.323 3.4754 36.6276 2.23975 35.3918C1.0041 34.1559 0.309079 32.4804 0.307129 30.7327V12.2661C0.30908 10.5186 1.00414 8.84319 2.23983 7.6075C3.47551 6.37182 5.1509 5.67676 6.89841 5.6748H36.1003C37.848 5.67676 39.5235 6.37178 40.7593 7.60743C41.9952 8.84308 42.6906 10.5185 42.6928 12.2661V30.7327C42.6909 32.4806 41.9957 34.1563 40.7598 35.3922C39.5239 36.6281 37.8482 37.3233 36.1003 37.3253ZM6.89841 8.74623C5.96519 8.74721 5.07047 9.11836 4.41058 9.77825C3.75069 10.4381 3.37953 11.3329 3.37856 12.2661V30.7327C3.37921 31.6662 3.75022 32.5612 4.41014 33.2214C5.07007 33.8815 5.96498 34.2529 6.89841 34.2538H36.1003C37.0339 34.2529 37.9289 33.8816 38.589 33.2215C39.2492 32.5613 39.6204 31.6663 39.6214 30.7327V12.2661C39.6201 11.3328 39.2487 10.438 38.5886 9.77818C37.9285 9.11832 37.0337 8.74721 36.1003 8.74623H6.89841Z" fill="black"/>
<path d="M21.4827 25.6341C20.1942 25.6468 18.939 25.2248 17.9199 24.4363L1.49632 11.3483C1.17782 11.0943 0.973255 10.7242 0.927636 10.3194C0.882016 9.91455 0.999077 9.50819 1.25307 9.18968C1.50706 8.87118 1.87717 8.66661 2.28199 8.62099C2.6868 8.57538 3.09316 8.69244 3.41167 8.94643L19.8303 22.0344C20.3153 22.3784 20.8956 22.5625 21.4902 22.5609C22.0849 22.5594 22.6642 22.3723 23.1474 22.0258L39.3634 8.95257C39.6802 8.69695 40.0857 8.57768 40.4905 8.62099C40.8953 8.66431 41.2663 8.86666 41.522 9.18354C41.7776 9.50042 41.8968 9.90586 41.8535 10.3107C41.8102 10.7155 41.6079 11.0865 41.291 11.3421L25.08 24.4154C24.0538 25.2178 22.7853 25.6476 21.4827 25.6341Z" fill="black"/>
</svg>
