<svg width="44" height="44" viewBox="0 0 44 44" fill="none" xmlns="http://www.w3.org/2000/svg">
<g clip-path="url(#clip0_134_51)">
<path d="M22.0847 22.0001V43.2904L43.418 0.709717L0.751343 22.0001H22.0847Z" fill="#78B9EB"/>
<path d="M44.8785 -0.794056C44.6601 -1.01029 44.3275 -1.06192 44.0535 -0.921923L1.38683 20.3684C1.09516 20.5174 0.943427 20.8463 1.01947 21.1644C1.09516 21.4825 1.37919 21.7077 1.70697 21.7098H22.3292V42.2905C22.3302 42.6186 22.5566 42.9035 22.8768 42.9787C22.9302 42.9929 22.9851 43.0001 23.0403 43.0001C23.308 42.9995 23.5525 42.8484 23.6733 42.6096L45.0066 0.028935C45.1466 -0.244125 45.0952 -0.576093 44.8785 -0.794056ZM23.7514 39.2813V21.0001C23.7514 20.6082 23.433 20.2905 23.0403 20.2905H4.7219L42.7806 1.29929L23.7514 39.2813Z" fill="#1A6FB0"/>
</g>
<defs>
<clipPath id="clip0_134_51">
<rect width="44" height="44" fill="white"/>
</clipPath>
</defs>
</svg>
