<svg width="44" height="43" viewBox="0 0 44 43" fill="none" xmlns="http://www.w3.org/2000/svg">
<path d="M8.20605 1.97873C7.76313 2.12446 6.89039 2.97019 4.97939 5.12167C2.5945 7.80214 2.28781 8.21788 1.70388 9.58539C0.861142 11.6088 0.59225 13.0284 0.701473 15.0169C0.822093 17.2129 1.32256 18.7463 2.66306 21.0487C7.68247 29.7048 15.3408 36.5163 24.2191 40.2777C26.9349 41.412 28.3362 41.6645 30.8368 41.4058C33.028 41.1987 34.7796 40.5648 36.5325 39.3239C38.2027 38.1569 42.0545 33.7655 42.4078 32.6188C42.7629 31.5067 42.541 29.9927 41.8971 29.0048C41.6332 28.6204 40.1499 27.193 38.6177 25.8203C35.2998 22.8808 34.7812 22.5971 32.6717 22.7129C30.6832 22.8222 30.0961 23.1839 27.6574 25.8327C25.759 27.8967 25.5764 28.0455 24.9539 28.0797C23.2939 28.1709 18.2609 24.3196 15.8845 21.1549C14.1617 18.8388 14.1608 18.8215 16.984 15.5967C19.0238 13.2647 19.2864 12.678 19.1734 10.6203C19.1003 9.28889 19.0121 8.94686 18.6101 8.25787C17.9796 7.19987 12.541 2.27827 11.5845 1.91456C10.8047 1.61053 9.19279 1.6297 8.20605 1.97873ZM11.6282 8.71074C13.0683 9.98442 14.3346 11.2503 14.4698 11.503C14.8823 12.3822 14.6399 13.0199 13.2393 14.6751C11.5137 16.7296 11.2222 17.422 11.3373 19.2021C11.4247 20.7929 11.6204 21.1984 13.4517 23.5952C15.5076 26.2919 19.7916 29.7681 22.7273 31.1157C23.4926 31.4725 23.8249 31.5237 25.0872 31.4543C26.9892 31.3498 27.5937 30.9871 29.4912 28.9058C30.2765 28.0475 30.9676 27.3678 31.005 27.4178C31.0588 27.4495 32.5728 28.8059 34.3959 30.4227L37.6783 33.3469L36.5854 34.6036C34.5446 36.9183 32.7093 37.921 30.2184 38.0404C28.3163 38.1449 27.4212 37.9513 25.0396 36.9027C21.2002 35.2059 17.6216 32.8876 14.248 29.8818C10.7659 26.7952 7.90356 23.3103 5.69853 19.4771C4.29951 17.0565 3.93053 15.7067 4.11621 13.7193C4.29619 11.6283 4.93579 10.3271 6.76318 8.23221C7.71003 7.15694 8.48567 6.43795 8.69317 6.42655C8.90066 6.41516 10.0422 7.30633 11.6282 8.71074ZM36.4029 28.4394C38.5726 30.3667 39.1073 30.9444 39.1272 31.3075C39.1424 31.5841 39.0702 31.8483 38.9703 31.9231C38.7858 32.0373 32.4474 26.5234 32.4322 26.2468C32.4275 26.1603 32.7186 26.0923 33.0644 26.0733C33.6523 26.041 33.9048 26.2179 36.4029 28.4394Z" fill="#008ED0"/>
</svg>
