<svg width="48" height="37" viewBox="0 0 48 37" fill="none" xmlns="http://www.w3.org/2000/svg">
<path d="M1.6855 4.0625C4.61714 1.30078 9.38277 1.30078 12.3144 4.0625C12.5068 4.24512 12.7539 4.33496 13 4.33496C13.2656 4.33496 13.5312 4.22949 13.7275 4.02051C14.1064 3.61914 14.0878 2.98633 13.6855 2.60742C9.99995 -0.869141 3.99995 -0.869141 0.314405 2.60742C-0.0879391 2.98633 -0.106494 3.61914 0.272412 4.02051C0.651319 4.42285 1.28511 4.44141 1.6855 4.0625Z" fill="#3A92CC"/>
<path d="M11 7.59277C11.246 7.59277 11.4931 7.50293 11.6855 7.32031C12.0878 6.94141 12.1064 6.30859 11.7275 5.90723C10.4687 4.57031 8.78901 3.83496 6.99995 3.83496C5.21089 3.83496 3.5312 4.57031 2.27241 5.90723C1.89351 6.30859 1.91206 6.94141 2.3144 7.32031C2.7148 7.7002 3.34858 7.68066 3.72749 7.27832C4.60542 6.34766 5.76753 5.83496 6.99995 5.83496C8.23237 5.83496 9.39448 6.34766 10.2724 7.27832C10.4687 7.4873 10.7343 7.59277 11 7.59277Z" fill="#3A92CC"/>
<path d="M4.22951 9.19727C3.87794 9.62207 3.93654 10.2529 4.36232 10.6055C4.7881 10.959 5.41798 10.8984 5.77052 10.4727C6.45021 9.65039 7.54982 9.65039 8.22951 10.4727C8.42775 10.7119 8.7129 10.835 9.00099 10.835C9.2256 10.835 9.45119 10.7598 9.63771 10.6055C10.0635 10.2529 10.1221 9.62207 9.77052 9.19727C9.04201 8.31836 8.05861 7.83496 7.00001 7.83496C5.94142 7.83496 4.95802 8.31836 4.22951 9.19727Z" fill="#3A92CC"/>
<path d="M44.9232 22.9907H8V12.9922C8 12.4395 7.55273 11.9922 7 11.9922C6.44727 11.9922 6 12.4395 6 12.9922V22.9907H3.08319C1.38318 22.9907 0.00317383 24.3707 0.00317383 26.0707V33.9106C0.00317383 35.6107 1.38318 36.9907 3.08319 36.9907H44.9232C46.6232 36.9907 48.0032 35.6107 48.0032 33.9106V26.0707C48.0032 24.3707 46.6232 22.9907 44.9232 22.9907ZM6 32.9922H5C4.44727 32.9922 4 32.5449 4 31.9922C4 31.4395 4.44727 30.9922 5 30.9922H6C6.55273 30.9922 7 31.4395 7 31.9922C7 32.5449 6.55273 32.9922 6 32.9922ZM10.5 32.9922H9.5C8.94727 32.9922 8.5 32.5449 8.5 31.9922C8.5 31.4395 8.94727 30.9922 9.5 30.9922H10.5C11.0527 30.9922 11.5 31.4395 11.5 31.9922C11.5 32.5449 11.0527 32.9922 10.5 32.9922ZM15 32.9922H14C13.4473 32.9922 13 32.5449 13 31.9922C13 31.4395 13.4473 30.9922 14 30.9922H15C15.5527 30.9922 16 31.4395 16 31.9922C16 32.5449 15.5527 32.9922 15 32.9922ZM19.5 32.9922H18.5C17.9473 32.9922 17.5 32.5449 17.5 31.9922C17.5 31.4395 17.9473 30.9922 18.5 30.9922H19.5C20.0527 30.9922 20.5 31.4395 20.5 31.9922C20.5 32.5449 20.0527 32.9922 19.5 32.9922ZM43.0032 29.2407C42.3132 29.2407 41.7532 28.6807 41.7532 27.9907C41.7532 27.3007 42.3132 26.7407 43.0032 26.7407C43.6932 26.7407 44.2532 27.3007 44.2532 27.9907C44.2532 28.6807 43.6932 29.2407 43.0032 29.2407Z" fill="black"/>
</svg>
